<svg width="17" height="16" viewBox="0 0 16.5 15.75" fill="none" xmlns="http://www.w3.org/2000/svg">
  <path d="M3.24129 6.1372C5.05154 2.93399 5.95667 1.33239 7.1987 0.920108C7.88199 0.693297 8.61802 0.693297 9.30131 0.920108C10.5433 1.33239 11.4485 2.93399 13.2587 6.1372C15.069 9.3404 15.9741 10.942 15.7026 12.247C15.5532 12.9649 15.1852 13.6161 14.6513 14.1073C13.6808 15 11.8705 15 8.25 15C4.62949 15 2.81923 15 1.84873 14.1073C1.31481 13.6161 0.946797 12.9649 0.797422 12.247C0.5259 10.942 1.43103 9.3404 3.24129 6.1372Z" fill="#F63A3A" stroke="#F63A3A" stroke-width="1.5"/>
  <path d="M8.244 10.875H8.25074" stroke="white" stroke-width="2" stroke-linecap="round" stroke-linejoin="round"/>
  <path d="M8.25 8.625L8.25 5.625" stroke="white" stroke-width="1.5" stroke-linecap="round" stroke-linejoin="round"/>
</svg>
